<svg xmlns="http://www.w3.org/2000/svg" viewBox="0 0 2048 460" fill="#1428A0">
  <path d="M307.7 167.4c-39.6-17.2-52.8-28.2-52.8-44.6 0-13.4 12.2-27.8 42.6-27.8 30.2 0 52 10.4 52 10.4l16.6-52.6s-23.2-12.8-67.2-12.8c-69.8 0-118.2 40.2-118.2 96.2 0 40.4 29.2 69.6 67 86.4 30.4 13.4 41 24 41 42.8 0 17.8-14.4 31.4-41.2 31.4-39.4 0-66.8-20.4-66.8-20.4L163.7 329s30.8 23.4 81.2 23.4c72.2 0 118-35.4 118-98.8 0-43.4-29.8-71-54.2-86.2z"/>
  <path d="M545.7 172.8h-93.2L517.9 345h69.8l-12-35.8h85.2L673.5 345h73L681.7 172.8zm-27.6 95.4l22-65.6 22 65.6h-44z"/>
  <path d="M874.1 172.8h-56.8v106.4l-87.8-106.4h-63.2V345h56.6V237l89.2 108h62V172.8z"/>
  <path d="M1008.5 172.8h-56.6v112.8c0 40.2-36 44-50.8 44-17.4 0-50.2-6.2-50.2-43.8V172.8h-57v114.4c0 44.4 28.4 65.2 57.2 65.2 34.4 0 53.4-10.4 68.2-32.2l-4.2 29h93.4V172.8z"/>
  <path d="M1141.5 172.8h-56.8v106.4l-87.8-106.4h-63.2V345h56.6V237l89.2 108h62V172.8z"/>
  <path d="M1335.5 167.4c-39.6-17.2-52.8-28.2-52.8-44.6 0-13.4 12.2-27.8 42.6-27.8 30.2 0 52 10.4 52 10.4l16.6-52.6s-23.2-12.8-67.2-12.8c-69.8 0-118.2 40.2-118.2 96.2 0 40.4 29.2 69.6 67 86.4 30.4 13.4 41 24 41 42.8 0 17.8-14.4 31.4-41.2 31.4-39.4 0-66.8-20.4-66.8-20.4L1192.5 329s30.8 23.4 81.2 23.4c72.2 0 118-35.4 118-98.8 0-43.4-29.8-71-54.2-86.2z"/>
  <path d="M1545.7 172.8h-93.2L1517.9 345h69.8l-12-35.8h85.2L1673.5 345h73L1681.7 172.8zm-27.6 95.4l22-65.6 22 65.6h-44z"/>
  <path d="M1874.1 172.8h-56.8v106.4l-87.8-106.4h-63.2V345h56.6V237l89.2 108h62V172.8z"/>
  <path d="M2008.5 172.8h-56.6v112.8c0 40.2-36 44-50.8 44-17.4 0-50.2-6.2-50.2-43.8V172.8h-57v114.4c0 44.4 28.4 65.2 57.2 65.2 34.4 0 53.4-10.4 68.2-32.2l-4.2 29h93.4V172.8z"/>
</svg>
